<svg width="218" height="46" viewBox="0 0 218 46" fill="none" xmlns="http://www.w3.org/2000/svg">
<g clip-path="url(#clip0)">
<path d="M26.0757 11.6853C26.0757 15.1053 24.1969 17.2144 21.0656 17.2144C17.9911 17.2144 16.1123 15.1053 16.1123 11.6853C16.1123 8.32218 17.9911 6.21313 21.0656 6.21313C24.1969 6.21313 26.0757 8.32218 26.0757 11.6853ZM18.7313 11.6853C18.7313 13.7373 19.6422 14.9343 21.1225 14.9343C22.6597 14.9343 23.5137 13.7373 23.5137 11.6853C23.5137 9.69021 22.6028 8.43618 21.1225 8.43618C19.5853 8.49318 18.7313 9.69021 18.7313 11.6853ZM33.7618 6.32714C35.0144 6.32714 35.7545 7.69517 35.0144 8.72119L24.0831 23.9405C23.7984 24.3395 23.3429 24.5675 22.8874 24.5675H22.7736C21.521 24.5675 20.8378 23.1995 21.578 22.1735L32.5662 6.95415C32.7939 6.55514 33.2494 6.32714 33.7618 6.32714ZM40.5939 19.1524C40.5939 22.5725 38.7151 24.6245 35.5837 24.6245C32.5093 24.6245 30.6305 22.5155 30.6305 19.1524C30.6305 15.7893 32.5093 13.6803 35.5837 13.6803C38.6581 13.6233 40.5939 15.7323 40.5939 19.1524ZM33.1925 19.1524C33.1925 21.2045 34.1034 22.4015 35.5837 22.4015C37.1209 22.4015 37.9749 21.2045 37.9749 19.1524C37.9749 17.1004 37.064 15.9033 35.5837 15.9033C34.0465 15.9033 33.1925 17.1004 33.1925 19.1524Z" fill="white"/>
<path d="M47.5397 30.0967C47.5397 29.4126 46.9704 28.8996 46.2872 28.8996H37.804H15.8275L12.3546 14.8773L11.6144 11.7423L10.248 5.24411L9.50786 1.71004H9.56479L9.39399 1.08302C9.22319 0.399009 8.59691 0 7.85677 0H1.65097C0.967767 0 0.28456 0.570012 0.0568245 1.19703C-0.284779 2.28005 0.512296 3.42007 1.59404 3.42007H6.66116L14.2334 36.0818C12.1837 36.8798 10.8173 38.8748 11.0451 41.2689C11.2728 43.777 13.4363 45.886 15.9414 46C18.845 46.114 21.2362 43.6059 21.2362 40.7559C21.2362 40.0719 21.1224 38.7608 20.8377 38.7608H31.826C31.5982 38.7608 31.4274 40.1289 31.4274 40.8129C31.4274 43.948 34.2741 46.342 37.5193 45.772C39.9106 45.373 41.6755 43.2639 41.6755 40.8129C41.6755 40.0719 41.5047 39.5019 41.277 38.8748C41.9602 38.7038 42.4726 37.7918 42.4726 37.1078C42.4726 36.3098 41.7894 35.3408 40.9923 35.3408H17.3647L16.4538 31.3507H42.131H46.2872C46.9704 31.3507 47.5397 30.7807 47.5397 30.0967ZM37.0069 38.9318C37.6901 39.1029 38.2595 39.6729 38.4303 40.3569C38.7719 41.8389 37.5193 43.0929 36.0391 42.7509C35.3559 42.5799 34.7865 42.0099 34.6157 41.3259C34.2741 39.9009 35.5267 38.5898 37.0069 38.9318ZM17.991 41.3259C17.8202 42.0099 17.2509 42.5799 16.5677 42.7509C15.0874 43.0929 13.8348 41.8389 14.1764 40.3569C14.3472 39.6729 14.9166 39.1029 15.5998 38.9318C17.0801 38.5898 18.3326 39.9009 17.991 41.3259Z" fill="white"/>
<path d="M65.7016 12.1412C67.1819 12.1412 68.3775 11.5712 69.2884 10.3742L71.2242 12.3693C69.687 14.0793 67.922 14.9343 65.8155 14.9343C63.7659 14.9343 62.0578 14.3073 60.6914 12.9963C59.3819 11.6852 58.6987 10.0322 58.6987 8.03716C58.6987 6.04212 59.3819 4.38908 60.7484 3.07805C62.1148 1.76702 63.7659 1.08301 65.7585 1.08301C67.979 1.08301 69.8008 1.93803 71.2811 3.59106L69.4592 5.70011C68.4914 4.50308 67.3527 3.93307 65.9293 3.93307C64.7907 3.93307 63.8228 4.27508 63.0257 5.01609C62.2286 5.75711 61.8301 6.72613 61.8301 7.98016C61.8301 9.23419 62.2286 10.2602 62.9688 11.0012C63.7089 11.7992 64.6768 12.1412 65.7016 12.1412Z" fill="white"/>
<path d="M83.6359 9.63314C83.6359 11.1152 83.1235 12.3692 82.0987 13.3952C81.0739 14.4212 79.7644 14.9343 78.1703 14.9343C76.5761 14.9343 75.3235 14.4212 74.2418 13.3952C73.217 12.3692 72.7046 11.1152 72.7046 9.63314C72.7046 8.15111 73.217 6.89708 74.2418 5.81406C75.2666 4.73103 76.5761 4.27502 78.1703 4.27502C79.7644 4.27502 81.0169 4.78804 82.0987 5.81406C83.1804 6.84008 83.6359 8.15111 83.6359 9.63314ZM75.6082 9.63314C75.6082 10.4882 75.836 11.1722 76.3484 11.6852C76.8038 12.1982 77.4301 12.4832 78.1703 12.4832C78.9104 12.4832 79.5367 12.1982 79.9921 11.6852C80.4476 11.1722 80.7323 10.4882 80.7323 9.63314C80.7323 8.77812 80.5045 8.09411 79.9921 7.5811C79.4797 7.06809 78.9104 6.78308 78.1703 6.78308C77.4301 6.78308 76.8038 7.06809 76.3484 7.5811C75.8929 8.09411 75.6082 8.77812 75.6082 9.63314Z" fill="white"/>
<path d="M88.6461 9.06313V14.8203H85.7424V4.44603H88.6461V5.58605C89.5001 4.67403 90.4679 4.27502 91.6066 4.27502C92.6884 4.27502 93.5993 4.67403 94.3395 5.41505C95.0796 6.15607 95.4212 7.18209 95.4212 8.49312V14.7633H92.5176V8.94913C92.5176 7.35309 91.9482 6.55507 90.7526 6.55507C90.1833 6.55507 89.6709 6.78308 89.2723 7.18209C88.8738 7.6381 88.6461 8.20811 88.6461 9.06313Z" fill="white"/>
<path d="M100.83 14.8204L96.7307 4.44617H99.7482L102.31 10.9443L104.872 4.44617H107.89L103.791 14.8204H100.83Z" fill="white"/>
<path d="M118.252 13.2813C117.113 14.3644 115.747 14.9344 114.152 14.9344C112.558 14.9344 111.306 14.4784 110.281 13.5094C109.256 12.5403 108.744 11.2293 108.744 9.63327C108.744 7.98023 109.256 6.72621 110.281 5.75718C111.306 4.78816 112.558 4.33215 113.982 4.33215C115.405 4.33215 116.601 4.78816 117.625 5.64318C118.593 6.4982 119.106 7.69523 119.106 9.17726V10.7163H111.59C111.704 11.2863 111.989 11.7423 112.501 12.0843C113.014 12.4263 113.583 12.5973 114.209 12.5973C115.234 12.5973 116.031 12.2553 116.714 11.5713L118.252 13.2813ZM115.462 7.18222C115.063 6.84021 114.608 6.6692 114.039 6.6692C113.469 6.6692 112.957 6.84021 112.501 7.18222C112.046 7.52422 111.761 7.98023 111.704 8.60725H116.259C116.088 7.98023 115.86 7.52422 115.462 7.18222Z" fill="white"/>
<path d="M126.564 7.01108C125.71 7.01108 125.084 7.29609 124.628 7.9231C124.23 8.55012 124.002 9.34814 124.002 10.3172V14.8203H121.098V4.44603H124.002V5.81406C124.401 5.41505 124.856 5.01604 125.368 4.73103C125.938 4.44603 126.507 4.27502 127.076 4.27502V7.01108H126.564Z" fill="white"/>
<path d="M136.812 11.5712C136.812 12.5972 136.414 13.3952 135.673 14.0222C134.933 14.6493 133.965 14.9343 132.827 14.9343C132.087 14.9343 131.233 14.8203 130.436 14.5352C129.582 14.2502 128.841 13.8512 128.215 13.3382L129.468 11.5142C130.549 12.3692 131.688 12.7682 132.884 12.7682C133.282 12.7682 133.567 12.7112 133.795 12.5402C134.022 12.3692 134.136 12.1982 134.136 11.9702C134.136 11.7422 133.965 11.5142 133.681 11.2862C133.396 11.0582 132.941 10.8872 132.371 10.7162C131.802 10.5452 131.346 10.3742 131.062 10.2602C130.777 10.1462 130.436 9.91815 130.037 9.69014C129.24 9.17713 128.841 8.49312 128.841 7.5241C128.841 6.55507 129.24 5.81406 129.98 5.18704C130.72 4.56003 131.745 4.27502 132.941 4.27502C134.136 4.27502 135.389 4.67403 136.584 5.52905L135.503 7.46709C134.592 6.84008 133.738 6.55507 132.827 6.55507C131.916 6.55507 131.517 6.78308 131.517 7.29609C131.517 7.5811 131.631 7.7521 131.916 7.9231C132.2 8.09411 132.656 8.26511 133.339 8.43612C133.965 8.66412 134.478 8.77812 134.706 8.89213C134.99 9.00613 135.332 9.17713 135.673 9.40514C136.471 9.86115 136.812 10.5452 136.812 11.5712Z" fill="white"/>
<path d="M139.26 3.13509C138.919 2.79308 138.748 2.39407 138.748 1.93806C138.748 1.48205 138.919 1.08305 139.26 0.741039C139.602 0.399031 140 0.228027 140.456 0.228027C140.911 0.228027 141.31 0.399031 141.651 0.741039C141.993 1.08305 142.164 1.48205 142.164 1.93806C142.164 2.39407 141.993 2.79308 141.651 3.13509C141.31 3.4771 140.911 3.6481 140.456 3.6481C140 3.6481 139.602 3.4771 139.26 3.13509ZM141.879 14.8203H138.976V4.44612H141.879V14.8203Z" fill="white"/>
<path d="M154.974 9.63314C154.974 11.1152 154.462 12.3692 153.437 13.3952C152.412 14.4212 151.103 14.9343 149.508 14.9343C147.914 14.9343 146.662 14.4212 145.58 13.3952C144.555 12.3692 144.043 11.1152 144.043 9.63314C144.043 8.15111 144.555 6.89708 145.58 5.81406C146.605 4.78804 147.914 4.27502 149.508 4.27502C151.103 4.27502 152.355 4.78804 153.437 5.81406C154.519 6.84008 154.974 8.15111 154.974 9.63314ZM146.946 9.63314C146.946 10.4882 147.174 11.1722 147.686 11.6852C148.142 12.1982 148.768 12.4832 149.508 12.4832C150.249 12.4832 150.875 12.1982 151.33 11.6852C151.786 11.1722 152.07 10.4882 152.07 9.63314C152.07 8.77812 151.843 8.09411 151.33 7.5811C150.818 7.06809 150.249 6.78308 149.508 6.78308C148.768 6.78308 148.142 7.06809 147.686 7.5811C147.231 8.09411 146.946 8.77812 146.946 9.63314Z" fill="white"/>
<path d="M159.984 9.06313V14.8203H157.081V4.44603H159.984V5.58605C160.838 4.67403 161.806 4.27502 162.945 4.27502C164.083 4.27502 164.937 4.67403 165.678 5.41505C166.418 6.15607 166.759 7.18209 166.759 8.49312V14.7633H163.856V8.94913C163.856 7.35309 163.286 6.55507 162.091 6.55507C161.521 6.55507 161.009 6.78308 160.61 7.18209C160.155 7.6381 159.984 8.20811 159.984 9.06313Z" fill="white"/>
<path d="M185.605 5.81414C185.605 7.98019 184.751 9.34822 183.043 9.97523L186.459 14.7633H182.758L179.797 10.4882H177.748V14.8203H174.73V1.36804H179.797C181.904 1.36804 183.384 1.71005 184.238 2.45107C185.149 3.13508 185.605 4.27511 185.605 5.81414ZM181.961 7.41017C182.359 7.06817 182.53 6.55516 182.53 5.81414C182.53 5.07312 182.359 4.61711 181.961 4.33211C181.562 4.0471 180.879 3.9331 179.968 3.9331H177.748V7.92319H179.911C180.936 7.92319 181.619 7.75218 181.961 7.41017Z" fill="white"/>
<path d="M197.162 14.8203H194.429V13.5662C193.689 14.4782 192.778 14.9913 191.696 14.9913C190.615 14.9913 189.704 14.6493 188.964 14.0222C188.223 13.3952 187.825 12.5402 187.825 11.5142C187.825 10.4312 188.223 9.69014 188.964 9.12013C189.704 8.60712 190.786 8.32211 192.095 8.32211H194.258V8.26511C194.258 7.18209 193.689 6.61208 192.494 6.61208C191.981 6.61208 191.469 6.72608 190.899 6.89708C190.33 7.06809 189.875 7.35309 189.476 7.6381L188.167 5.75706C189.533 4.78804 191.07 4.27502 192.835 4.27502C194.088 4.27502 195.112 4.61703 195.91 5.24405C196.707 5.87106 197.105 6.84008 197.105 8.20811V14.8203H197.162ZM194.258 10.8872V10.3742H192.437C191.298 10.3742 190.729 10.7162 190.729 11.4572C190.729 11.8562 190.842 12.1412 191.127 12.3122C191.412 12.4832 191.81 12.5972 192.323 12.5972C192.835 12.5972 193.291 12.4262 193.689 12.1412C194.031 11.7992 194.258 11.4002 194.258 10.8872Z" fill="white"/>
<path d="M203.197 6.55516V11.1723C203.197 11.5713 203.311 11.8563 203.482 12.0843C203.71 12.3123 203.937 12.4263 204.222 12.4263C204.734 12.4263 205.19 12.1983 205.588 11.6853L206.67 13.6803C205.759 14.4783 204.848 14.9343 203.823 14.9343C202.856 14.9343 202.002 14.5923 201.318 13.9653C200.635 13.3383 200.294 12.4263 200.294 11.2863V6.49815H199.098V4.44611H200.294V1.36804H203.197V4.44611H205.702V6.49815H203.197V6.55516Z" fill="white"/>
<path d="M217.146 13.2813C216.007 14.3644 214.641 14.9344 213.047 14.9344C211.453 14.9344 210.2 14.4784 209.175 13.5094C208.15 12.5403 207.638 11.2293 207.638 9.63327C207.638 7.98023 208.15 6.72621 209.175 5.75718C210.2 4.78816 211.453 4.33215 212.876 4.33215C214.299 4.33215 215.495 4.78816 216.52 5.64318C217.487 6.4982 218 7.69523 218 9.17726V10.7163H210.485C210.599 11.2863 210.883 11.7423 211.396 12.0843C211.908 12.4263 212.477 12.5973 213.104 12.5973C214.128 12.5973 214.925 12.2553 215.609 11.5713L217.146 13.2813ZM214.413 7.18222C214.015 6.84021 213.559 6.6692 212.99 6.6692C212.42 6.6692 211.908 6.84021 211.453 7.18222C210.997 7.52422 210.712 7.98023 210.598 8.60725H215.153C215.039 7.98023 214.812 7.52422 214.413 7.18222Z" fill="white"/>
<path d="M68.2068 22.7435L67.5805 24.1686C66.3849 23.3705 64.9616 23.0285 63.8798 23.0285C62.1718 23.0285 61.0331 23.6555 61.0331 24.7956C61.0331 28.2727 68.6053 26.4486 68.5484 31.3507C68.5484 33.5738 66.5557 35.0558 63.709 35.0558C61.7733 35.0558 59.8375 34.2008 58.585 33.0038L59.2682 31.6357C60.5207 32.8328 62.2287 33.5168 63.7659 33.5168C65.7017 33.5168 66.8973 32.7187 66.8973 31.4647C66.8973 27.9306 59.382 29.8117 59.382 24.9666C59.382 22.8575 61.2609 21.4895 64.0506 21.4895C65.474 21.4895 67.0681 22.0025 68.2068 22.7435Z" fill="white"/>
<path d="M76.69 34.3148C76.0068 34.7708 75.2097 35.0558 74.4127 35.0558C72.9324 35.0558 71.8506 34.1438 71.8506 32.1487V26.4486H70.3704V25.2516H71.8506V22.5725H73.3309V25.2516H76.5192V26.5056H73.3309V31.9207C73.3309 33.1747 73.7864 33.6308 74.6973 33.6308C75.2097 33.6308 75.7791 33.4597 76.2915 33.1177L76.69 34.3148Z" fill="white"/>
<path d="M88.0198 29.9257C88.0198 32.9467 85.9133 35.0558 82.8958 35.0558C79.8783 35.0558 77.7717 32.9467 77.7717 29.9257C77.7717 26.9046 79.8783 24.8525 82.8958 24.8525C85.9133 24.8525 88.0198 26.9046 88.0198 29.9257ZM79.252 29.9827C79.252 32.2057 80.7892 33.7447 82.8958 33.7447C85.0023 33.7447 86.5396 32.2057 86.5396 29.9827C86.5396 27.7596 85.0023 26.2206 82.8958 26.2206C80.7892 26.2206 79.252 27.7596 79.252 29.9827Z" fill="white"/>
<path d="M92.1761 27.1326C92.8593 25.6506 94.1118 24.8525 95.8199 24.8525V26.3916C93.7133 26.3346 92.3469 27.7026 92.1761 29.6976V35.0558H90.6958V24.9095H92.1761V27.1326Z" fill="white"/>
<path d="M106.523 30.5526H98.2679C98.5526 32.5477 99.9759 33.8017 101.912 33.8017C103.164 33.8017 104.246 33.3457 105.043 32.5477L105.84 33.4597C104.872 34.5427 103.449 35.1697 101.798 35.1697C98.8372 35.1697 96.7876 33.0607 96.7876 30.0396C96.7876 27.0186 98.8372 24.9095 101.798 24.9095C105.043 24.8525 106.637 27.0756 106.523 30.5526ZM105.157 29.2986C105.043 27.3606 103.734 26.1065 101.798 26.1065C99.862 26.1065 98.4956 27.3606 98.2679 29.2986H105.157Z" fill="white"/>
</g>
<defs>
<clipPath id="clip0">
<rect width="218" height="46" fill="white"/>
</clipPath>
</defs>
</svg>
