<?xml version="1.0" encoding="utf-8"?>
<?xml-stylesheet type="text/css" href="../css/style.css"?>
<svg xmlns="http://www.w3.org/2000/svg" xmlns:xlink="http://www.w3.org/1999/xlink">
    <symbol viewBox="0 0 50 49" id="logo_cart" xmlns="http://www.w3.org/2000/svg">
        <path d="M27.4362 12.284C27.4362 15.8793 25.4611 18.0965 22.1694 18.0965C18.9373 18.0965 16.9623 15.8793 16.9623 12.284C16.9623 8.7486 18.9373 6.53149 22.1694 6.53149C25.4611 6.53149 27.4362 8.7486 27.4362 12.284ZM19.7155 12.284C19.7155 14.4412 20.673 15.6995 22.2292 15.6995C23.8452 15.6995 24.7429 14.4412 24.7429 12.284C24.7429 10.1867 23.7853 8.86844 22.2292 8.86844C20.6132 8.92837 19.7155 10.1867 19.7155 12.284ZM35.5161 6.65134C36.8329 6.65134 37.6109 8.08947 36.8329 9.16806L25.3415 25.1672C25.0422 25.5866 24.5634 25.8263 24.0845 25.8263H23.9649C22.6481 25.8263 21.9299 24.3882 22.708 23.3097L34.2593 7.31048C34.4986 6.89102 34.9775 6.65134 35.5161 6.65134ZM42.6983 20.1338C42.6983 23.7291 40.7232 25.8862 37.4314 25.8862C34.1995 25.8862 32.2244 23.6692 32.2244 20.1338C32.2244 16.5983 34.1995 14.3813 37.4314 14.3813C40.6633 14.3214 42.6983 16.5384 42.6983 20.1338ZM34.9177 20.1338C34.9177 22.291 35.8752 23.5493 37.4314 23.5493C39.0473 23.5493 39.9451 22.291 39.9451 20.1338C39.9451 17.9766 38.9875 16.7182 37.4314 16.7182C35.8154 16.7182 34.9177 17.9766 34.9177 20.1338Z"/>
        <path d="M50 31.6388C50 30.9197 49.4015 30.3804 48.6833 30.3804H39.7654H16.6629L13.012 15.6396L12.2339 12.344L10.7975 5.51282L10.0194 1.79766H10.0793L9.89972 1.13851C9.72017 0.419454 9.0618 0 8.28373 0H1.75995C1.04174 0 0.323523 0.599219 0.0841179 1.25837C-0.274989 2.39688 0.562928 3.59531 1.7001 3.59531H7.02686L14.9871 37.9306C12.8324 38.7695 11.396 40.8667 11.6354 43.3835C11.8748 46.0201 14.1492 48.2372 16.7826 48.357C19.835 48.4769 22.3487 45.8403 22.3487 42.8442C22.3487 42.1252 22.2291 40.7469 21.9298 40.7469H33.4811C33.2417 40.7469 33.0621 42.1851 33.0621 42.9041C33.0621 46.1999 36.0547 48.7165 39.4662 48.1173C41.98 47.6979 43.8353 45.4807 43.8353 42.9041C43.8353 42.1252 43.6558 41.526 43.4164 40.8667C44.1346 40.687 44.6733 39.7282 44.6733 39.0092C44.6733 38.1703 43.9551 37.1517 43.1171 37.1517H18.2788L17.3213 32.9571H44.3142H48.6833C49.4015 32.9571 50 32.3579 50 31.6388ZM38.9275 40.9267C39.6457 41.1065 40.2443 41.7057 40.4238 42.4248C40.7829 43.9827 39.4662 45.301 37.9101 44.9414C37.1919 44.7617 36.5933 44.1625 36.4138 43.4434C36.0547 41.9454 37.3715 40.5671 38.9275 40.9267ZM18.9372 43.4434C18.7577 44.1625 18.1592 44.7617 17.441 44.9414C15.8849 45.301 14.5681 43.9827 14.9272 42.4248C15.1067 41.7057 15.7053 41.1065 16.4235 40.9267C17.9797 40.5671 19.2963 41.9454 18.9372 43.4434Z"/>
    </symbol>
    <symbol viewBox="0 0 153 34" id="logo_text" xmlns="http://www.w3.org/2000/svg">
        <path d="M7.68777 11.6133C9.10017 11.6133 10.2409 11.0681 11.11 9.92315L12.957 11.8315C11.4904 13.4672 9.80631 14.285 7.79644 14.285C5.84086 14.285 4.21112 13.6852 2.90739 12.4312C1.65796 11.1771 1.0061 9.59602 1.0061 7.68772C1.0061 5.77942 1.65797 4.19825 2.96178 2.94422C4.2655 1.69019 5.84086 1.03592 7.74206 1.03592C9.8607 1.03592 11.5989 1.85377 13.0113 3.43493L11.273 5.45228C10.3496 4.30729 9.26313 3.76207 7.90502 3.76207C6.81865 3.76207 5.89515 4.08921 5.13462 4.798C4.37408 5.5068 3.99386 6.43369 3.99386 7.6332C3.99386 8.8327 4.37408 9.8141 5.08033 10.5229C5.78648 11.2862 6.70998 11.6133 7.68777 11.6133Z" />
        <path d="M24.7994 9.21431C24.7994 10.6319 24.3105 11.8314 23.3327 12.8128C22.3549 13.7942 21.1055 14.285 19.5845 14.285C18.0634 14.285 16.8683 13.7942 15.8362 12.8128C14.8584 11.8314 14.3695 10.6319 14.3695 9.21431C14.3695 7.79671 14.8584 6.59721 15.8362 5.56127C16.814 4.52533 18.0634 4.08915 19.5845 4.08915C21.1055 4.08915 22.3005 4.57986 23.3327 5.56127C24.3648 6.54269 24.7994 7.79671 24.7994 9.21431ZM17.1399 9.21431C17.1399 10.0322 17.3573 10.6865 17.8462 11.1771C18.2807 11.6678 18.8783 11.9405 19.5845 11.9405C20.2907 11.9405 20.8882 11.6678 21.3227 11.1771C21.7573 10.6865 22.029 10.0322 22.029 9.21431C22.029 8.39646 21.8116 7.74219 21.3227 7.25149C20.8338 6.76078 20.2907 6.48816 19.5845 6.48816C18.8783 6.48816 18.2807 6.76078 17.8462 7.25149C17.4116 7.74219 17.1399 8.39646 17.1399 9.21431Z" />
        <path d="M29.5798 8.66908V14.1759H26.8093V4.25272H29.5798V5.34318C30.3946 4.47081 31.318 4.08915 32.4045 4.08915C33.4366 4.08915 34.3058 4.47081 35.012 5.17961C35.7182 5.88841 36.0441 6.86983 36.0441 8.12385V14.1214H33.2737V8.56004C33.2737 7.03339 32.7304 6.27007 31.5896 6.27007C31.0465 6.27007 30.5576 6.48816 30.1772 6.86982C29.797 7.30601 29.5798 7.85124 29.5798 8.66908Z" />
        <path d="M41.2048 14.176L37.2935 4.25286H40.1726L42.6169 10.4685L45.0614 4.25286H47.9409L44.03 14.176H41.2048Z" />
        <path d="M57.8276 12.7039C56.7409 13.7399 55.4375 14.2851 53.9157 14.2851C52.3948 14.2851 51.2002 13.8489 50.2223 12.922C49.2443 11.9951 48.7558 10.7411 48.7558 9.21443C48.7558 7.63326 49.2443 6.43377 50.2223 5.50687C51.2002 4.57998 52.3948 4.1438 53.7535 4.1438C55.1112 4.1438 56.2524 4.57998 57.2294 5.39782C58.153 6.21567 58.6424 7.36066 58.6424 8.77825V10.2504H51.4712C51.58 10.7956 51.8519 11.2318 52.3404 11.5589C52.8299 11.886 53.3728 12.0496 53.9701 12.0496C54.9481 12.0496 55.7085 11.7225 56.3602 11.0682L57.8276 12.7039ZM55.1656 6.86995C54.7849 6.54281 54.3508 6.37924 53.8079 6.37924C53.264 6.37924 52.7755 6.54281 52.3404 6.86995C51.9063 7.19708 51.6344 7.63326 51.58 8.23302H55.926C55.7629 7.63326 55.5453 7.19708 55.1656 6.86995Z" />
        <path d="M65.7583 6.70625C64.9435 6.70625 64.3462 6.97887 63.9111 7.57862C63.5314 8.17838 63.3138 8.9417 63.3138 9.86863V14.1759H60.543V4.25272H63.3138V5.56127C63.6945 5.17961 64.1287 4.79795 64.6172 4.52533C65.161 4.25272 65.7039 4.08915 66.2468 4.08915V6.70625H65.7583Z" />
        <path d="M75.5362 11.0681C75.5362 12.0495 75.1565 12.8128 74.4495 13.4125C73.7434 14.0124 72.8198 14.285 71.734 14.285C71.028 14.285 70.2132 14.1759 69.4527 13.9032C68.6379 13.6306 67.9309 13.249 67.3336 12.7583L68.5291 11.0136C69.5605 11.8314 70.6473 12.2131 71.7884 12.2131C72.1682 12.2131 72.4401 12.1585 72.6576 11.995C72.8742 11.8314 72.983 11.6678 72.983 11.4498C72.983 11.2317 72.8198 11.0136 72.5489 10.7955C72.2769 10.5774 71.8428 10.4138 71.299 10.2503C70.7561 10.0867 70.321 9.92315 70.05 9.8141C69.7781 9.70506 69.4527 9.48693 69.072 9.26883C68.3116 8.77812 67.9309 8.12385 67.9309 7.19696C67.9309 6.27007 68.3116 5.56127 69.0176 4.96152C69.7237 4.36177 70.7017 4.08915 71.8428 4.08915C72.983 4.08915 74.1785 4.47081 75.3187 5.28866L74.2873 7.14243C73.4181 6.54269 72.6032 6.27007 71.734 6.27007C70.8648 6.27007 70.4841 6.48816 70.4841 6.97887C70.4841 7.25149 70.5929 7.41505 70.8648 7.57862C71.1358 7.74219 71.5709 7.90576 72.2225 8.06933C72.8198 8.28742 73.3093 8.39646 73.5268 8.50552C73.7978 8.61456 74.1241 8.77812 74.4495 8.99622C75.2109 9.4324 75.5362 10.0867 75.5362 11.0681Z" />
        <path d="M77.8719 2.99878C77.5466 2.67164 77.3834 2.28998 77.3834 1.8538C77.3834 1.41761 77.5466 1.03596 77.8719 0.70882C78.1982 0.381682 78.578 0.218113 79.0131 0.218113C79.4472 0.218113 79.8279 0.381682 80.1532 0.70882C80.4796 1.03596 80.6427 1.41761 80.6427 1.8538C80.6427 2.28998 80.4796 2.67164 80.1532 2.99878C79.8279 3.32592 79.4472 3.48949 79.0131 3.48949C78.578 3.48949 78.1982 3.32592 77.8719 2.99878ZM80.3708 14.1759H77.6009V4.25281H80.3708V14.1759Z" />
        <path d="M92.8651 9.21431C92.8651 10.6319 92.3766 11.8314 91.3986 12.8128C90.4206 13.7942 89.1717 14.285 87.6498 14.285C86.129 14.285 84.9344 13.7942 83.902 12.8128C82.924 11.8314 82.4355 10.6319 82.4355 9.21431C82.4355 7.79671 82.924 6.59721 83.902 5.56127C84.88 4.57986 86.129 4.08915 87.6498 4.08915C89.1717 4.08915 90.3662 4.57986 91.3986 5.56127C92.431 6.54269 92.8651 7.79671 92.8651 9.21431ZM85.2054 9.21431C85.2054 10.0322 85.4229 10.6865 85.9114 11.1771C86.3465 11.6678 86.9438 11.9405 87.6498 11.9405C88.3568 11.9405 88.9541 11.6678 89.3883 11.1771C89.8234 10.6865 90.0943 10.0322 90.0943 9.21431C90.0943 8.39646 89.8777 7.74219 89.3883 7.25149C88.8998 6.76078 88.3568 6.48816 87.6498 6.48816C86.9438 6.48816 86.3465 6.76078 85.9114 7.25149C85.4773 7.74219 85.2054 8.39646 85.2054 9.21431Z" />
        <path d="M97.6453 8.66908V14.1759H94.8754V4.25272H97.6453V5.34318C98.4601 4.47081 99.3837 4.08915 100.47 4.08915C101.556 4.08915 102.371 4.47081 103.078 5.17961C103.784 5.88841 104.109 6.86983 104.109 8.12385V14.1214H101.34V8.56004C101.34 7.03339 100.796 6.27007 99.6556 6.27007C99.1118 6.27007 98.6233 6.48816 98.2426 6.86982C97.8084 7.30601 97.6453 7.85124 97.6453 8.66908Z" />
        <path d="M122.091 5.56135C122.091 7.63323 121.276 8.94178 119.647 9.54152L122.906 14.1214H119.375L116.549 10.0322H114.594V14.1759H111.715V1.30856H116.549C118.56 1.30856 119.972 1.6357 120.787 2.3445C121.656 2.99877 122.091 4.08924 122.091 5.56135ZM118.614 7.08799C118.994 6.76086 119.157 6.27015 119.157 5.56135C119.157 4.85255 118.994 4.41637 118.614 4.14376C118.233 3.87114 117.582 3.7621 116.713 3.7621H114.594V7.5787H116.658C117.636 7.5787 118.288 7.41513 118.614 7.08799Z" />
        <path d="M133.118 14.1759H130.51V12.9764C129.804 13.8487 128.935 14.3395 127.903 14.3395C126.871 14.3395 126.002 14.0124 125.296 13.4125C124.589 12.8128 124.209 11.995 124.209 11.0136C124.209 9.97767 124.589 9.26883 125.296 8.7236C126.002 8.2329 127.034 7.96028 128.283 7.96028H130.347V7.90576C130.347 6.86983 129.804 6.3246 128.664 6.3246C128.175 6.3246 127.686 6.43364 127.142 6.59721C126.599 6.76078 126.165 7.03339 125.784 7.30601L124.535 5.50675C125.839 4.57986 127.305 4.08915 128.989 4.08915C130.185 4.08915 131.162 4.41629 131.923 5.01605C132.684 5.6158 133.063 6.54268 133.063 7.85124V14.1759H133.118ZM130.347 10.4138V9.92315H128.61C127.523 9.92315 126.98 10.2503 126.98 10.9591C126.98 11.3407 127.088 11.6133 127.36 11.7769C127.632 11.9405 128.011 12.0495 128.501 12.0495C128.989 12.0495 129.424 11.8859 129.804 11.6133C130.13 11.2862 130.347 10.9045 130.347 10.4138Z" />
        <path d="M138.876 6.27015V10.6865C138.876 11.0682 138.985 11.3408 139.148 11.5589C139.366 11.777 139.582 11.886 139.854 11.886C140.343 11.886 140.778 11.6679 141.157 11.1772L142.19 13.0855C141.321 13.8488 140.451 14.285 139.473 14.285C138.551 14.285 137.736 13.9579 137.083 13.3581C136.432 12.7584 136.106 11.886 136.106 10.7956V6.21562H134.965V4.2528H136.106V1.30856H138.876V4.2528H141.266V6.21562H138.876V6.27015Z" />
        <path d="M152.185 12.7039C151.098 13.7399 149.795 14.2851 148.274 14.2851C146.753 14.2851 145.558 13.8489 144.58 12.922C143.602 11.9951 143.113 10.7411 143.113 9.21443C143.113 7.63326 143.602 6.43377 144.58 5.50687C145.558 4.57998 146.753 4.1438 148.111 4.1438C149.469 4.1438 150.61 4.57998 151.588 5.39782C152.511 6.21567 153 7.36066 153 8.77825V10.2504H145.83C145.939 10.7956 146.209 11.2318 146.699 11.5589C147.187 11.886 147.73 12.0496 148.329 12.0496C149.306 12.0496 150.066 11.7225 150.719 11.0682L152.185 12.7039ZM149.578 6.86995C149.198 6.54281 148.763 6.37924 148.22 6.37924C147.676 6.37924 147.187 6.54281 146.753 6.86995C146.318 7.19708 146.046 7.63326 145.938 8.23302H150.284C150.175 7.63326 149.958 7.19708 149.578 6.86995Z" />
        <path d="M10.078 21.7547L9.48047 23.1178C8.33972 22.3544 6.98171 22.0273 5.94953 22.0273C4.31988 22.0273 3.23342 22.627 3.23342 23.7175C3.23342 27.0435 10.4583 25.2987 10.404 29.9876C10.404 32.1141 8.50269 33.5316 5.78657 33.5316C3.93966 33.5316 2.09266 32.7138 0.897614 31.5689L1.54947 30.2602C2.74452 31.4053 4.37417 32.0595 5.84086 32.0595C7.68786 32.0595 8.82862 31.2961 8.82862 30.0967C8.82862 26.7162 1.65805 28.5155 1.65805 23.8811C1.65805 21.8637 3.45076 20.5552 6.1125 20.5552C7.4706 20.5552 8.99158 21.0459 10.078 21.7547Z" />
        <path d="M18.1721 32.8229C17.5202 33.259 16.7597 33.5316 15.9993 33.5316C14.5869 33.5316 13.5547 32.6593 13.5547 30.7509V25.2987H12.1424V24.1537H13.5547V21.5911H14.9671V24.1537H18.0091V25.3532H14.9671V30.5328C14.9671 31.7323 15.4017 32.1686 16.2708 32.1686C16.7597 32.1686 17.303 32.0049 17.7919 31.6778L18.1721 32.8229Z" />
        <path d="M28.9822 28.6246C28.9822 31.5142 26.9723 33.5316 24.0932 33.5316C21.2142 33.5316 19.2042 31.5142 19.2042 28.6246C19.2042 25.7348 21.2142 23.772 24.0932 23.772C26.9723 23.772 28.9822 25.7348 28.9822 28.6246ZM20.6166 28.6791C20.6166 30.8055 22.0833 32.2775 24.0932 32.2775C26.1031 32.2775 27.5699 30.8055 27.5699 28.6791C27.5699 26.5527 26.1031 25.0806 24.0932 25.0806C22.0833 25.0806 20.6166 26.5527 20.6166 28.6791Z" />
        <path d="M32.9478 25.9529C33.5997 24.5354 34.7947 23.772 36.4245 23.772V25.2441C34.4145 25.1896 33.1108 26.4981 32.9478 28.4064V33.5316H31.5354V23.8265H32.9478V25.9529Z" />
        <path d="M46.6366 29.2242H38.7602C39.0318 31.1326 40.3899 32.3321 42.2371 32.3321C43.4317 32.3321 44.4641 31.8959 45.2245 31.1326L45.985 32.0049C45.0614 33.0408 43.7036 33.6406 42.1284 33.6406C39.3034 33.6406 37.3478 31.6233 37.3478 28.7335C37.3478 25.8439 39.3034 23.8265 42.1284 23.8265C45.2245 23.772 46.7454 25.8984 46.6366 29.2242ZM45.3333 28.0247C45.2245 26.171 43.9756 24.9714 42.1284 24.9714C40.2812 24.9714 38.9775 26.171 38.7602 28.0247H45.3333Z" />
    </symbol>
    <symbol viewBox="0 0 512 512" id="dashboard" xmlns="http://www.w3.org/2000/svg">
        <path d="m197.332031 170.667969h-160c-20.585937 0-37.332031-16.746094-37.332031-37.335938v-96c0-20.585937 16.746094-37.332031 37.332031-37.332031h160c20.589844 0 37.335938 16.746094 37.335938 37.332031v96c0 20.589844-16.746094 37.335938-37.335938 37.335938zm-160-138.667969c-2.941406 0-5.332031 2.390625-5.332031 5.332031v96c0 2.945313 2.390625 5.335938 5.332031 5.335938h160c2.945313 0 5.335938-2.390625 5.335938-5.335938v-96c0-2.941406-2.390625-5.332031-5.335938-5.332031zm0 0"/>
        <path d="m197.332031 512h-160c-20.585937 0-37.332031-16.746094-37.332031-37.332031v-224c0-20.589844 16.746094-37.335938 37.332031-37.335938h160c20.589844 0 37.335938 16.746094 37.335938 37.335938v224c0 20.585937-16.746094 37.332031-37.335938 37.332031zm-160-266.667969c-2.941406 0-5.332031 2.390625-5.332031 5.335938v224c0 2.941406 2.390625 5.332031 5.332031 5.332031h160c2.945313 0 5.335938-2.390625 5.335938-5.332031v-224c0-2.945313-2.390625-5.335938-5.335938-5.335938zm0 0"/>
        <path d="m474.667969 512h-160c-20.589844 0-37.335938-16.746094-37.335938-37.332031v-96c0-20.589844 16.746094-37.335938 37.335938-37.335938h160c20.585937 0 37.332031 16.746094 37.332031 37.335938v96c0 20.585937-16.746094 37.332031-37.332031 37.332031zm-160-138.667969c-2.945313 0-5.335938 2.390625-5.335938 5.335938v96c0 2.941406 2.390625 5.332031 5.335938 5.332031h160c2.941406 0 5.332031-2.390625 5.332031-5.332031v-96c0-2.945313-2.390625-5.335938-5.332031-5.335938zm0 0"/>
        <path d="m474.667969 298.667969h-160c-20.589844 0-37.335938-16.746094-37.335938-37.335938v-224c0-20.585937 16.746094-37.332031 37.335938-37.332031h160c20.585937 0 37.332031 16.746094 37.332031 37.332031v224c0 20.589844-16.746094 37.335938-37.332031 37.335938zm-160-266.667969c-2.945313 0-5.335938 2.390625-5.335938 5.332031v224c0 2.945313 2.390625 5.335938 5.335938 5.335938h160c2.941406 0 5.332031-2.390625 5.332031-5.335938v-224c0-2.941406-2.390625-5.332031-5.332031-5.332031zm0 0"/>
    </symbol>
    <symbol viewBox="0 0 512 512" id="profile" xmlns="http://www.w3.org/2000/svg" >
        <path d="M510.702,438.722c-2.251-10.813-12.84-17.754-23.657-15.503c-10.814,2.251-17.755,12.843-15.503,23.656
			c1.297,6.229-0.248,12.613-4.236,17.519c-2.31,2.841-7.461,7.606-15.999,7.606H60.693c-8.538,0-13.689-4.766-15.999-7.606
			c-3.989-4.905-5.533-11.29-4.236-17.519c20.756-99.695,108.691-172.521,210.24-174.977c1.759,0.068,3.526,0.102,5.302,0.102
			c1.782,0,3.556-0.035,5.322-0.103c71.532,1.716,137.648,37.947,177.687,97.66c6.151,9.175,18.574,11.625,27.75,5.474
			c9.174-6.151,11.625-18.575,5.473-27.749c-32.817-48.944-80.47-84.534-134.804-102.417C370.538,220.036,392,180.477,392,136
			C392,61.01,330.991,0,256,0S120,61.01,120,136c0,44.504,21.488,84.084,54.633,108.911c-30.368,9.998-58.863,25.555-83.803,46.069
			c-45.732,37.617-77.529,90.086-89.532,147.742c-3.762,18.067,0.745,36.623,12.363,50.909C25.222,503.847,42.365,512,60.693,512
			h390.613c18.329,0,35.472-8.153,47.032-22.369C509.958,475.345,514.464,456.789,510.702,438.722z M160,136
			c0-52.935,43.065-96,96-96s96,43.065,96,96c0,51.305-40.455,93.339-91.141,95.878c-1.617-0.03-3.237-0.045-4.859-0.045
			c-1.614,0-3.228,0.016-4.84,0.046C200.465,229.35,160,187.312,160,136z"/>
    </symbol>
    <symbol viewBox="0 0 512 512" id="bug" xmlns="http://www.w3.org/2000/svg"  >
        <path d="M497.229,260.925h-88.615v-30.708c44.584-7.102,78.769-45.816,78.769-92.368v-19.692c0-8.156-6.613-14.769-14.769-14.769
			s-14.769,6.613-14.769,14.769v19.692c0,30.206-21.04,55.573-49.23,62.261v-13.03c0-13.573-11.042-24.615-24.615-24.615H369.23
			v-54.153c0-31.066-22.254-57.024-51.656-62.793l10.998-24.746c3.313-7.453-0.044-16.182-7.498-19.494
			c-7.455-3.314-16.182,0.044-19.494,7.498l-15.794,35.536h-59.573L210.42,8.775c-3.312-7.453-12.041-10.811-19.494-7.498
			c-7.453,3.312-10.81,12.041-7.498,19.494l10.998,24.746c-29.401,5.77-51.655,31.726-51.655,62.793v54.153h-14.769
			c-13.573,0-24.615,11.042-24.615,24.615v13.03c-28.19-6.687-49.23-32.055-49.23-62.261v-19.692
			c0-8.156-6.613-14.769-14.769-14.769s-14.769,6.613-14.769,14.769v19.692c0,46.552,34.185,85.265,78.769,92.368v30.708H14.771
			c-8.156,0-14.769,6.613-14.769,14.769s6.613,14.769,14.769,14.769h88.615v30.708c-44.584,7.102-78.769,45.816-78.769,92.368
			v19.692c0,8.156,6.613,14.769,14.769,14.769s14.769-6.613,14.769-14.769v-19.692c0-30.206,21.04-55.573,49.23-62.261v8.107
			C103.386,443.537,171.849,512,256,512s152.614-68.463,152.614-152.614v-8.107c28.19,6.688,49.23,32.055,49.23,62.261v19.692
			c0,8.156,6.613,14.769,14.769,14.769s14.769-6.613,14.769-14.769v-19.692c0-46.552-34.185-85.265-78.769-92.368v-30.708h88.615
			c8.156,0,14.769-6.613,14.769-14.769S505.385,260.925,497.229,260.925z M172.308,108.311c0-19.002,15.459-34.461,34.461-34.461
			h98.461c19.002,0,34.461,15.459,34.461,34.461v54.153H172.308V108.311z M379.076,359.386c0,67.864-55.212,123.076-123.076,123.076
			S132.924,427.25,132.924,359.386V192.003h108.307v142.768c0,8.156,6.613,14.769,14.769,14.769s14.769-6.613,14.769-14.769V192.003
			h108.307V359.386z"/>
    </symbol>
    <symbol viewBox="0 0 21 44" id="arrow_aside" xmlns="http://www.w3.org/2000/svg">
        <path d="M20.4599 21.0132C20.7722 21.385 20.7722 21.9275 20.4599 22.2993L7.01579 38.3084C6.41552 39.0232 5.25 38.5988 5.25 37.6653L5.25 5.64715C5.25 4.71374 6.41552 4.28927 7.01579 5.00406L20.4599 21.0132Z"/>
        <rect x="1.31247" y="5.25" width="1.3125" height="32.8125"/>
    </symbol>
    <symbol viewBox="0 0 24 24" id="admin" clip-rule="evenodd" fill-rule="evenodd" stroke-linejoin="round" stroke-miterlimit="2"  xmlns="http://www.w3.org/2000/svg">
        <path d="m11.5 20.263h-8.55c-.053 0-.104-.022-.141-.059-.038-.038-.059-.088-.059-.141 0-.001 0-1.451 0-1.451 0-.83.593-1.562 1.507-2.184 1.632-1.114 4.273-1.816 7.243-1.816.414 0 .75-.336.75-.75 0-.413-.336-.75-.75-.75-3.322 0-6.263.831-8.089 2.076-1.393.95-2.161 2.157-2.161 3.424v1.451c0 .45.179.883.498 1.202.319.318.751.498 1.202.498h8.55c.414-.001.75-.337.75-.751 0-.413-.336-.75-.75-.749z"/>
        <path d="m11.5 1.25c-3.036 0-5.5 2.464-5.5 5.5s2.464 5.5 5.5 5.5 5.5-2.464 5.5-5.5-2.464-5.5-5.5-5.5zm0 1.5c2.208 0 4 1.792 4 4s-1.792 4-4 4-4-1.792-4-4 1.792-4 4-4z"/>
        <path d="m17.5 13.938c-1.966 0-3.562 1.596-3.562 3.562s1.596 3.563 3.562 3.563 3.563-1.597 3.563-3.563-1.597-3.562-3.563-3.562zm0 1.5c1.138 0 2.063.924 2.063 2.062s-.925 2.063-2.063 2.063-2.063-.925-2.063-2.063.925-2.062 2.063-2.062z"/>
        <path d="m18.25 14.687v-1.687c0-.414-.336-.75-.75-.75s-.75.336-.75.75v1.688c0 .413.336.75.75.75.414-.001.75-.337.75-.751z"/>
        <path d="m20.019 16.042 1.193-1.194c.293-.292.293-.768 0-1.06-.292-.293-.768-.293-1.06 0l-1.194 1.193c-.292.293-.292.768 0 1.061.293.292.768.292 1.061 0z"/>
        <path d="m20.312 18.25h1.688c.414 0 .75-.336.75-.75s-.336-.75-.75-.75h-1.688c-.413 0-.749.336-.749.75-.001.414.336.75.749.75z"/>
        <path d="m18.958 20.019 1.194 1.193c.292.293.768.293 1.06 0 .293-.292.293-.768 0-1.06l-1.193-1.194c-.293-.292-.768-.292-1.061 0-.292.293-.292.768 0 1.061z"/>
        <path d="m16.75 20.312v1.688c0 .414.336.75.75.75s.75-.336.75-.75v-1.688c0-.413-.336-.749-.75-.75-.414 0-.75.337-.75.75z"/>
        <path d="m14.981 18.958-1.193 1.194c-.293.292-.293.768 0 1.06.292.293.768.293 1.06 0l1.194-1.193c.292-.293.292-.768 0-1.061-.293-.292-.768-.292-1.061 0z"/>
        <path d="m14.687 16.75h-1.687c-.414 0-.75.336-.75.75s.336.75.75.75h1.687c.414 0 .751-.336.75-.75 0-.414-.336-.75-.75-.75z"/>
        <path d="m16.042 14.981-1.194-1.193c-.292-.293-.768-.293-1.06 0-.293.292-.293.768 0 1.06l1.193 1.194c.293.292.768.292 1.061 0 .292-.293.292-.768 0-1.061z"/>
    </symbol>
</svg>