<svg width="50" height="49" viewBox="0 0 50 49" xmlns="http://www.w3.org/2000/svg">
<path d="M27.4362 12.284C27.4362 15.8793 25.4611 18.0965 22.1694 18.0965C18.9373 18.0965 16.9623 15.8793 16.9623 12.284C16.9623 8.7486 18.9373 6.53149 22.1694 6.53149C25.4611 6.53149 27.4362 8.7486 27.4362 12.284ZM19.7155 12.284C19.7155 14.4412 20.673 15.6995 22.2292 15.6995C23.8452 15.6995 24.7429 14.4412 24.7429 12.284C24.7429 10.1867 23.7853 8.86844 22.2292 8.86844C20.6132 8.92837 19.7155 10.1867 19.7155 12.284ZM35.5161 6.65134C36.8329 6.65134 37.6109 8.08947 36.8329 9.16806L25.3415 25.1672C25.0422 25.5866 24.5634 25.8263 24.0845 25.8263H23.9649C22.6481 25.8263 21.9299 24.3882 22.708 23.3097L34.2593 7.31048C34.4986 6.89102 34.9775 6.65134 35.5161 6.65134ZM42.6983 20.1338C42.6983 23.7291 40.7232 25.8862 37.4314 25.8862C34.1995 25.8862 32.2244 23.6692 32.2244 20.1338C32.2244 16.5983 34.1995 14.3813 37.4314 14.3813C40.6633 14.3214 42.6983 16.5384 42.6983 20.1338ZM34.9177 20.1338C34.9177 22.291 35.8752 23.5493 37.4314 23.5493C39.0473 23.5493 39.9451 22.291 39.9451 20.1338C39.9451 17.9766 38.9875 16.7182 37.4314 16.7182C35.8154 16.7182 34.9177 17.9766 34.9177 20.1338Z"/>
<path d="M50 31.6388C50 30.9197 49.4015 30.3804 48.6833 30.3804H39.7654H16.6629L13.012 15.6396L12.2339 12.344L10.7975 5.51282L10.0194 1.79766H10.0793L9.89972 1.13851C9.72017 0.419454 9.0618 0 8.28373 0H1.75995C1.04174 0 0.323523 0.599219 0.0841179 1.25837C-0.274989 2.39688 0.562928 3.59531 1.7001 3.59531H7.02686L14.9871 37.9306C12.8324 38.7695 11.396 40.8667 11.6354 43.3835C11.8748 46.0201 14.1492 48.2372 16.7826 48.357C19.835 48.4769 22.3487 45.8403 22.3487 42.8442C22.3487 42.1252 22.2291 40.7469 21.9298 40.7469H33.4811C33.2417 40.7469 33.0621 42.1851 33.0621 42.9041C33.0621 46.1999 36.0547 48.7165 39.4662 48.1173C41.98 47.6979 43.8353 45.4807 43.8353 42.9041C43.8353 42.1252 43.6558 41.526 43.4164 40.8667C44.1346 40.687 44.6733 39.7282 44.6733 39.0092C44.6733 38.1703 43.9551 37.1517 43.1171 37.1517H18.2788L17.3213 32.9571H44.3142H48.6833C49.4015 32.9571 50 32.3579 50 31.6388ZM38.9275 40.9267C39.6457 41.1065 40.2443 41.7057 40.4238 42.4248C40.7829 43.9827 39.4662 45.301 37.9101 44.9414C37.1919 44.7617 36.5933 44.1625 36.4138 43.4434C36.0547 41.9454 37.3715 40.5671 38.9275 40.9267ZM18.9372 43.4434C18.7577 44.1625 18.1592 44.7617 17.441 44.9414C15.8849 45.301 14.5681 43.9827 14.9272 42.4248C15.1067 41.7057 15.7053 41.1065 16.4235 40.9267C17.9797 40.5671 19.2963 41.9454 18.9372 43.4434Z"/>
</svg>
